<?xml version="1.0" encoding="utf-8"?>
<!-- Generator: Adobe Illustrator 23.0.0, SVG Export Plug-In . SVG Version: 6.00 Build 0)  -->
<svg version="1.1" id="Layer_1" xmlns="http://www.w3.org/2000/svg" xmlns:xlink="http://www.w3.org/1999/xlink" x="0px" y="0px"
	 viewBox="0 0 200 100" style="enable-background:new 0 0 200 100;" xml:space="preserve">
<g>
	<path d="M13.44,61.87V39.69h7.41v23.34c0,4.29-2.38,6.43-7.15,6.43h-2.2v-6.14H12C12.96,63.31,13.44,62.83,13.44,61.87z
		 M20.85,32.21v5.31h-7.41v-5.31H20.85z"/>
	<path d="M30.71,54.86c0,0.72,0.36,1.08,1.08,1.08h5.38c0.72,0,1.08-0.36,1.08-1.08v-0.14h7.23v1.12c0,3.81-2.14,5.71-6.43,5.71
		h-9.14c-4.29,0-6.43-1.9-6.43-5.71V45.39c0-3.81,2.14-5.71,6.43-5.71h8.96c4.29,0,6.43,1.9,6.43,5.71v3.25
		c0,3.08-1.48,4.62-4.44,4.62h-6.9c-0.75,0.02-1.47-0.08-2.17-0.33v-4.55H37c0.72,0,1.08-0.36,1.08-1.08v-0.94
		c0-0.72-0.36-1.08-1.08-1.08h-5.2c-0.72,0-1.08,0.36-1.08,1.08V54.86z"/>
	<path d="M58.49,45.29h-1.7c-0.96,0-1.44,0.48-1.44,1.44v7.77c0,0.96,0.48,1.45,1.44,1.45h1.7v5.78h-3.22
		c-4.77,0-7.15-2.14-7.15-6.43v-9.36c0-4.29,2.38-6.43,7.15-6.43h3.22V45.29z M59.58,45.29v-5.78h3.22c4.77,0,7.15,2.14,7.15,6.43
		v9.36c0,4.29-2.38,6.43-7.15,6.43h-3.22v-5.78h1.7c0.96,0,1.45-0.48,1.45-1.45v-7.77c0-0.96-0.48-1.44-1.45-1.44H59.58z"/>
	<path d="M79.99,61.54h-7.23V39.69h7.23V61.54z M81.07,45.29v-5.27c0.63-0.22,1.35-0.33,2.17-0.33h4.19c4.77,0,7.15,2.14,7.15,6.43
		v15.43h-7.23V46.73c0-0.96-0.48-1.44-1.45-1.44H81.07z"/>
	<path d="M97.22,64.47v-1.34h7.23v0.72c0,0.96,0.48,1.45,1.45,1.45h4.66c0.96,0,1.45-0.48,1.45-1.45V39.69h7.22v24.78
		c0,4.29-2.38,6.43-7.15,6.43h-7.7C99.6,70.9,97.22,68.76,97.22,64.47z M110.91,60.46c-0.65,0.24-1.38,0.36-2.2,0.36h-4.19
		c-4.77,0-7.15-2.14-7.15-6.43v-8.27c0-4.29,2.38-6.43,7.15-6.43h4.19c0.84,0,1.58,0.12,2.2,0.36v5.24h-4.88
		c-0.96,0-1.45,0.48-1.45,1.44v7.22c0,0.96,0.48,1.45,1.45,1.45h4.88V60.46z"/>
	<path d="M122.04,39.69h7.04v21.86h-7.04V39.69z M140.82,61.54h-6.87V46.73c0-0.96-0.48-1.44-1.44-1.44h-2.35v-5.13
		c0.7-0.31,1.42-0.47,2.17-0.47h1.34c2.17,0,3.84,0.45,5.02,1.34c1.06-0.89,2.37-1.34,3.94-1.34h2.64c4.77,0,7.15,2.14,7.15,6.43
		v15.43h-7.04V46.73c0-0.96-0.48-1.44-1.44-1.44h-1.66c-0.94,0-1.42,0.43-1.45,1.3V61.54z"/>
	<path d="M162.64,32.21v5.31h-7.41v-5.31H162.64z M162.64,39.69v21.86h-7.41V39.69H162.64z"/>
	<path d="M172.5,61.54h-7.22V39.69h7.22V61.54z M173.59,45.29v-5.27c0.63-0.22,1.35-0.33,2.17-0.33h4.19c4.77,0,7.15,2.14,7.15,6.43
		v15.43h-7.22V46.73c0-0.96-0.48-1.44-1.45-1.44H173.59z"/>
</g>
</svg>
